/* XPM */
static char *arcanine_50px[] = {
/* columns rows colors chars-per-pixel */
"50 50 231 2 ",
"   c #1B100E",
".  c #0E0F10",
"X  c #0F1010",
"o  c #131111",
"O  c #1B1412",
"+  c #1C1915",
"@  c #0E0E10",
"#  c #36130C",
"$  c #211613",
"%  c #2C1B14",
"&  c #271914",
"*  c #351D15",
"=  c #391B14",
"-  c #26110D",
";  c #39251A",
":  c #303909",
">  c #292523",
",  c #38312D",
"<  c #45140A",
"1  c #54170B",
"2  c #511812",
"3  c #651A09",
"4  c #6D1D0F",
"5  c #48271A",
"6  c #59291B",
"7  c #44301F",
"8  c #55331E",
"9  c #7A250E",
"0  c #632D1D",
"q  c #682816",
"w  c #792913",
"e  c #6A341C",
"r  c #793318",
"t  c #6B230C",
"y  c #453828",
"u  c #523827",
"i  c #6E3521",
"p  c #793822",
"a  c #0A5A08",
"s  c #0A5807",
"d  c #155D09",
"f  c #285B03",
"g  c #39541C",
"h  c #2E4E0E",
"j  c #1C640D",
"k  c #037E04",
"l  c #167E01",
"z  c #3A6609",
"x  c #397513",
"c  c #2C6C0F",
"v  c #3D6025",
"b  c #4B440C",
"n  c #545516",
"m  c #675014",
"M  c #467A12",
"N  c #49750E",
"B  c #6A7019",
"V  c #57452E",
"C  c #574634",
"Z  c #464D26",
"A  c #65462A",
"S  c #79522C",
"D  c #694E30",
"F  c #675434",
"G  c #755835",
"H  c #79462F",
"J  c #4F6827",
"K  c #656E24",
"L  c #6D702D",
"P  c #575656",
"I  c #665A53",
"U  c #7D5A4B",
"Y  c #776751",
"T  c #7C726A",
"R  c #862813",
"E  c #962818",
"W  c #87331A",
"Q  c #93351B",
"!  c #9A3A1D",
"~  c #A7381D",
"^  c #AF2E1D",
"/  c #843B23",
"(  c #8B3D25",
")  c #933D25",
"_  c #9C3C21",
"`  c #A73821",
"'  c #B73523",
"]  c #8B451D",
"[  c #AA441E",
"{  c #8C4422",
"}  c #8B4C27",
"|  c #9C4328",
" . c #954624",
".. c #8E552A",
"X. c #99572B",
"o. c #885A34",
"O. c #A4452A",
"+. c #AA492B",
"@. c #AA4626",
"#. c #BA4D2E",
"$. c #B34A28",
"%. c #A3552A",
"&. c #BE502E",
"*. c #B8552A",
"=. c #BF5030",
"-. c #86653B",
";. c #9A693A",
":. c #947831",
">. c #AA652B",
",. c #B16C2C",
"<. c #A66A37",
"1. c #B56738",
"2. c #A8733C",
"3. c #B77736",
"4. c #80741B",
"5. c #C5562E",
"6. c #C25130",
"7. c #CB5931",
"8. c #CB5631",
"9. c #D15E31",
"0. c #CF462D",
"q. c #F05F3D",
"w. c #E85A39",
"e. c #D9662E",
"r. c #D86634",
"t. c #C17939",
"y. c #CB6734",
"u. c #E56E30",
"i. c #E06D38",
"p. c #E97131",
"a. c #E6743B",
"s. c #896D42",
"d. c #997946",
"f. c #8A7350",
"g. c #A87C47",
"h. c #B37E44",
"j. c #837D76",
"k. c #D27744",
"l. c #EB7C41",
"z. c #0A8105",
"x. c #1B8202",
"c. c #118809",
"v. c #2B9409",
"b. c #26900B",
"n. c #00A300",
"m. c #3D8421",
"M. c #53800F",
"N. c #558313",
"B. c #598A18",
"V. c #608E1C",
"C. c #50902D",
"Z. c #6B9129",
"A. c #72A830",
"S. c #89832A",
"D. c #9C9939",
"F. c #BD823D",
"G. c #9EA03F",
"H. c #C3823E",
"J. c #949151",
"K. c #AB854C",
"L. c #BC8344",
"P. c #B7874A",
"I. c #AA8A51",
"U. c #B98E52",
"Y. c #BD9455",
"T. c #A8975C",
"R. c #A7B14E",
"E. c #AC8A77",
"W. c #AA9168",
"Q. c #BBA864",
"!. c #C28543",
"~. c #C48B4A",
"^. c #C98B47",
"/. c #C9924B",
"(. c #D3954D",
"). c #C49453",
"_. c #CB9955",
"`. c #C89957",
"'. c #D59C54",
"]. c #D89C55",
"[. c #D7864C",
"{. c #DCA156",
"}. c #DDA45B",
"|. c #D6A75E",
" X c #C5A05E",
".X c #E2AA5E",
"XX c #E1A65B",
"oX c #C8AC65",
"OX c #D7AB63",
"+X c #D8B86C",
"@X c #CBB770",
"#X c #E5AD61",
"$X c #EBB365",
"%X c #EEB768",
"&X c #EDBA6A",
"*X c #E4B767",
"=X c #F1B969",
"-X c #F0B768",
";X c #DAC475",
":X c #DEC06D",
">X c #EBC06E",
",X c #F2C16F",
"<X c #E9C975",
"1X c #F2C571",
"2X c #F3CA75",
"3X c #F3CE78",
"4X c #E8D27C",
"5X c #F4D47C",
"6X c #F4D87F",
"7X c #968C83",
"8X c #AFA38E",
"9X c #D0BCA2",
"0X c #DFD381",
"qX c #E8D884",
"wX c #F4DC82",
"eX c #F3DE89",
"rX c #E7D58C",
"tX c #F5E286",
"yX c #F6E589",
"uX c #F7EB8D",
"iX c #F8EE8F",
"pX c #F7EF92",
"aX c #F8EF90",
"sX c #F6ED9B",
"dX c #F8EF9D",
"fX c #F8F092",
"gX c #F8F09D",
"hX c #F7F092",
"jX c #F7EEA1",
"kX c #F8F0A3",
"lX c #F8F0A8",
/* pixels */
"n.n.n.n.n.n.n.n.n.n.n.n.n.n.n.n.n.n.n.n.n.n.n.n.n.n.n.n.n.n.n.n.n.n.n.n.n.n.n.n.n.n.n.n.n.n.n.n.n.n.",
"n.n.n.n.n.n.n.n.n.n.n.n.n.n.n.n.n.n.n.n.n.n.n.n.n.n.n.n.n.n.n.n.n.n.n.n.n.n.n.n.n.n.n.n.n.n.n.n.n.n.",
"n.n.n.n.n.n.n.n.n.n.n.n.n.n.n.n.n.n.n.n.n.n.n.n.n.n.n.n.n.n.n.n.B.n.n.n.n.n.n.n.n.n.n.n.n.n.n.n.n.n.",
"n.n.n.n.n.n.n.n.n.n.n.n.A.3.n.n.n.3.o.d n.n.n.n.n.n.n.n.n.n.n.V.(.N.n.n.n.n.n.n.n.n.n.n.n.n.n.n.n.n.",
"n.n.n.n.n.n.n.n.D.S.n.G.eXF N S./.qX;Xg z.n.n.n.n.n.n.v.F.v.N.+X.X,.H.^.A.N.v.n.n.n.n.n.n.n.n.n.n.n.",
"n.n.n.n.n.n.n.n.+X).B.;XsXd.).<XsXhX4XJ z.n.n.n.n.n.n.B.<XD.D.wX$X{.6XiX2XoXR.B.v.n.n.n.n.n.n.n.n.n.",
"n.n.n.n.n.n.n.n._.rXrXsXsX4X3XaXiXuXoX7 z z l n.n.n.v.+XyX$X<XiX,X3XuXfXaXsXyX>Xf.a n.n.n.n.n.n.n.n.",
"n.n.n.n.n.n.n.n./.sXjXgXuX1X2XtX6X+XX.1.>.| 8 >.n.n.N.+XhXtXwXiXuXuXfXhXiXiXiX:Xm.n.n.n.n.n.n.n.n.n.",
"n.n.n.C.T , o x H W.qXtXoXd.T.$X|.X.W # <  .D H.N.M K 4XhXhXhXhXfXfXfXfXfXiXiXiXqXK n.n.n.n.n.n.n.n.",
"n.n.n.f.T > s.Y.W.T.f.Y.y j.7Xd.t.e 2 3 w e U.XX'.;.G 3XiXkXlXlXgXfXfXfXfXaXiXiXdXI.n.n.n.n.n.n.n.n.",
"n.n.A._.p ;.qXeXuXuXQ.J.I 8X9X . .L.g.3 Q A #X,X%Xd.y K.yXlXlXlXkXfXfXfXiX6X1XyXhXqXy n.n.n.n.n.n.n.",
"n.n.B.<X&X`.h.I.`.qXsX@Xg.k.X.L.4XoXt q H  X-X3XwX<XoXY 0XkXlXlXgXgXfXfXtX=X.X,XyXpXD n.n.n.n.n.n.n.",
"n.n.B.'.f.p 6 5 f.(.uXaXiXwX5XiXuX`.g.s.`.-X=X,X#XF.G ;XhXhXgXjXgXgXfXiX3X-X'.(.>XyX|.c.n.n.n.n.n.n.",
"n.n.v.} T E ' } E.p +XuXfXfXfXfXiXiX4XL.{.,X6X6Xs.M K *XuXiXhXhXfXfXfXiX-X-X$Xt.$X1XqXJ.c.n.n.n.n.n.",
"n.n.n.i E.E ' ^ _ E ( OXuXaXfXfXuXuX,X/.F.{.>XuX;XC M.L.&X3XiXfXfXfXfXiX-X,X-X'.F.-X>X>X~.5 n.n.n.n.",
"n.n.n.n.B 1.! ' ^ 4 2 Q 2XwXiXyX5X5X=X-X$XH.L.oXtX:XS.x ~.3XuXfXiXfXyX6X-X-X,XY.G -X$X{.`.g n.n.n.n.",
"n.n.n.n.N ^.] R E 2 2 q !.-X3X3X5X5X=X=X$X!.-._.%X_.K v.A &X6XiXuX3X=XwX=X=X=X).G %X$X(.;.h s n.n.n.",
"n.n.n.n.n.V.!.W 1 2 E ^ p Y.=X=X=X,X=X].S U.).#XG ; n.n.; {.}.>X=X-X=X1X=X=X=X'.h.=X-X$X}.K.& n.n.n.",
"n.n.n.n.,.].%X^.3 ^ w.q./ g.=X=X=X=X=X$X!.3.,.H.8 n.: < < 1 6 <.(.-X=X=X=X=X$X<.$X=X%X'.3.c n.n.n.n.",
"n.n.n.n.4.XX%X1.' w.0.q./ P.=X=X=X=X=X=X$X^.2.3.t # X X 6 0 ; # 6 <.].=X=X-Xg.c h.-.s.M k n.n.n.n.n.",
"n.n.n.n.S.}.<.E.0.=.j.#._ ~.$X=X=X=X=X{.o.A U..Xr - O + 5 p | p % - 0 ].).V h n.x s a n.n.n.n.n.n.n.",
"n.n.n.n.B.,.r E.' R 7X0 d.$X#X-X=X=X=X$X{./.(.$XX.p ( / @.( ( &.) &   q z n.n.n.B.n.n.B.B.n.n.n.n.n.",
"n.n.n.n.n.v.b A D D G OX*X].[.=X-X=X=X=X-X-X}.L.<.& O O p #.&.6.6.( % / : l n.F.R.v.n.F.Y.x n.n.n.n.",
"n.n.n.n.n.n.c.-.#X%X=X=XP.L.$X=X-X=X=X=X-X=X!.1 # O o o + 6 0 O.6.6.) O.# f n.3.Q.n n.^.@Xg n.n.n.n.",
"n.n.n.n.n.n.n.n.D K.OX).-.#X=X=X=X=X=X=X-X-X#X..% ( 0 $ o o o * 0 =.6.+.$ s n.3.I.J.F.*X5XV n.n.n.n.",
"n.n.n.n.n.n.M ~.rXJ.D !./.XX=X=X=X=X=X=X-X$X/.L.W #.#.+.5 % o o p +.6.+.O o : ~.+X+X_.<X5XV n.n.n.n.",
"n.n.n.n.n.n.c.T.dXwX3X=X-X-X=X=X=X=X-X=X=X#X .9 $.6.6.6.=.| * X & / 6.+.O o 2 4XiXiX2XtX2Xo.N.n.n.n.",
"n.n.n.n.n.n.n.;.dXaXaXwXwXwX=X=X2X1X5X-X-X-X'.| ` | p 6.6.=.0 . * #.&.0 O @ 1 <.iXiXtXtX{.~.8 n.n.n.",
"n.n.n.n.n.n.N.@XyXpXpXpXfXiXyXtX5XwX3X3X=X}.r / 5 & $ ) =.#.0 @ * _ ! 6 i + W { uXiXiXtX$X.X7 n.n.n.",
"n.n.n.n.4.N.k A +XpXpXpXfXfXfXyX6X5X6X1X=X].# + o o o 6 O.R / + * Q ! #./ 0 #.e ;XuXhXtX-X].M.n.n.n.",
"n.n.n.N.3.|.Z.oXdXjXfXfXfXfXaXaXwX5X=X1X*XG o o 6 6 X o 6 9 #.= * Q Q r.#.| #.% ;.hXiXtX%X-.n.n.n.n.",
"n.n.n.,.OXiX;XK.sXgXfXiXiXfXaXaXaX1X,X2X%.+ O 8 #.| O X   4 0 $ % 9 @.p.p.7.6 - ;.iX5XtX&XC n.n.n.n.",
"n.n.n.n.F 0X>Xw 2.eXhXtX5XaXfXwX6X1X=X=X] * r  .8.8.i X % ;.;.# o.K.[ p.p.5.; 7 :X3X1X6X~.M n.n.n.n.",
"n.n.n.n.K Q.>Xr ! Y.tXeX=XtXfXwX1X,X=X=X] e 5.e.u.u.*.* q qX X<.4X+X%.e.u.] X r >X1X3X|.J z.n.n.n.n.",
"n.n.n.n.S *X$XW Q ).1X1X-X1XuXwX=X=X-X-X] @.7.p.p.p.u.r U.tX,X5XyX|.%.u.u.*.{ L.-X-X$X3.B v.n.n.n.n.",
"n.n.n.n.C *X.XR Q K.X.%..X$X).uX1X-X}.^.{ 9 &.p.p.p.p.OXuXiXyXuXtX3.~ e.e.e.+..X=X=X-X}.Z.n.n.n.n.n.",
"n.n.n.n.x L.^.! ` W ( r ..|.V 4X3X-Xg.G 1.1 0 a.p.p.p.<XfXfXyXuX=X2.r  . . .(.=X=X`.P.<.x.n.n.n.n.n.",
"n.n.n.n.k J r 9.7./ $ o < %.c /.3X|.n J _.p y [.l.p.5.oXfXfX5X6X].d.d.=X-X-X=X|.s.0 6 3 n.n.n.n.n.n.",
"n.n.n.n.n.z.3 1.U ; @ = w m n.4.{.`.j z.Z ; > Y k.i./ y 4XyX>X_.X.g L H..X.X{.S ( _ $.Q x.n.n.n.n.n.",
"n.n.n.n.n.f C I , o ; O.e a n.n.N.7 n.n.n.n.> P Y X.$ + ;X>X|._.; n.n.n...8 r +.6.6.6. .a n.n.n.n.n.",
"n.n.n.n.x.m V , > 6 O.$.b k n.n.n.s n.n.n.n.0 I P + X 5 +XOXJ Z.% n.n.n.f Q 7.7.8.@.#.) a n.n.n.n.n.",
"n.n.n.n.m k.%.{ +.7.6.( d n.n.n.n.n.n.n.n.n.w y.u o o / ].S.l b.d n.n.n.f ~ a.$.l.8.Q ( a n.n.n.n.n.",
"n.n.n.t 5.e.u.5.p.7.#.z n.n.n.n.n.n.n.n.n.n.R r.*.; 0 6.r.N n.n.n.n.n.n.f ~ y.e y.y.5 d n.n.n.n.n.n.",
"n.n.n.3 $.[ 8.R 7.8.+.j n.n.n.n.n.n.n.n.n.n.9 e.u.y.r.8.=.#.B n.n.n.n.n.n.x.j f j j s n.n.n.n.n.n.n.",
"n.n.n.d w ! 6.R #.#.i l n.n.n.n.n.n.n.n.n.n.Q a.e.u.7.6.&.) f n.n.n.n.n.n.n.n.n.n.n.n.n.n.n.n.n.n.n.",
"n.n.n.n.: 2 5 - 5 5 d n.n.n.n.n.n.n.n.n.n.n.Q r.! k.i.! $./ a n.n.n.n.n.n.n.n.n.n.n.n.n.n.n.n.n.n.n.",
"n.n.n.n.n.n.n.n.n.n.n.n.n.n.n.n.n.n.n.n.n.n.R +.6 k.r.q ( p s n.n.n.n.n.n.n.n.n.n.n.n.n.n.n.n.n.n.n.",
"n.n.n.n.n.n.n.n.n.n.n.n.n.n.n.n.n.n.n.n.n.n.l d d p ( b d z.n.n.n.n.n.n.n.n.n.n.n.n.n.n.n.n.n.n.n.n.",
"n.n.n.n.n.n.n.n.n.n.n.n.n.n.n.n.n.n.n.n.n.n.n.n.n.d a k n.n.n.n.n.n.n.n.n.n.n.n.n.n.n.n.n.n.n.n.n.n.",
"n.n.n.n.n.n.n.n.n.n.n.n.n.n.n.n.n.n.n.n.n.n.n.n.n.n.n.n.n.n.n.n.n.n.n.n.n.n.n.n.n.n.n.n.n.n.n.n.n.n."
};
