/* XPM */
static char *fire_50px[] = {
/* columns rows colors chars-per-pixel */
"50 50 146 2 ",
"   c black",
".  c #030100",
"X  c #050101",
"o  c #060101",
"O  c #070101",
"+  c #090201",
"@  c #0A0201",
"#  c #0A0202",
"$  c #0D0202",
"%  c #0F0302",
"&  c #110302",
"*  c #120302",
"=  c #140403",
"-  c #160403",
";  c #180403",
":  c #1A0503",
">  c #1C0504",
",  c #1E0604",
"<  c #200604",
"1  c #220604",
"2  c #230605",
"3  c #240605",
"4  c #240705",
"5  c #250705",
"6  c #260705",
"7  c #270705",
"8  c #280705",
"9  c #290705",
"0  c #280706",
"q  c #2A0806",
"w  c #2C0806",
"e  c #2D0806",
"r  c #2E0806",
"t  c #310907",
"y  c #350A07",
"u  c #380A07",
"i  c #390A07",
"p  c #380A08",
"a  c #390A08",
"s  c #3D0B08",
"d  c #3E0B08",
"f  c #420C09",
"g  c #440C09",
"h  c #450D09",
"j  c #470D0A",
"k  c #480D0A",
"l  c #4A0D0A",
"z  c #4C0E0A",
"x  c #4D0E0A",
"c  c #540F0B",
"v  c #550F0B",
"b  c #560F0B",
"n  c #56100B",
"m  c #5A100C",
"M  c #63120D",
"N  c #68130E",
"B  c #69130E",
"V  c #6B130E",
"C  c #6D130E",
"Z  c #6E140F",
"A  c #71140F",
"S  c #75150F",
"D  c #741510",
"F  c #791610",
"G  c #7B1610",
"H  c #7C1610",
"J  c #7C1611",
"K  c #7D1711",
"L  c #7E1711",
"P  c #7F1711",
"I  c #4D7B0A",
"U  c #801711",
"Y  c #851812",
"T  c #871812",
"R  c #881912",
"E  c #891912",
"W  c #8D1913",
"Q  c #8F1913",
"!  c #8E1A13",
"~  c #911A13",
"^  c #931A14",
"/  c #961B14",
"(  c #981B14",
")  c #9C1C15",
"_  c #9D1C15",
"`  c #9E1C15",
"'  c #A31D15",
"]  c #A21D16",
"[  c #A31D16",
"{  c #A41D16",
"}  c #A41E16",
"|  c #A51E16",
" . c #A71E16",
".. c #A81E16",
"X. c #AB1F17",
"o. c #B12018",
"O. c #B52118",
"+. c #B72118",
"@. c #B82118",
"#. c #B92119",
"$. c #BA2219",
"%. c #BC2219",
"&. c #BD2219",
"*. c #BF231A",
"=. c #C3231A",
"-. c #C5231A",
";. c #C6241A",
":. c #C7241A",
">. c #C7241B",
",. c #C9241B",
"<. c #CB251B",
"1. c #CE251B",
"2. c #CF251C",
"3. c #D3261C",
"4. c #D5261C",
"5. c #D6271D",
"6. c #D7271D",
"7. c #DB281D",
"8. c #DD281D",
"9. c #DE281E",
"0. c #DF281E",
"q. c #CE391C",
"w. c #D0371C",
"e. c #D1381C",
"r. c #E0281E",
"t. c #E1291E",
"y. c #E3291E",
"u. c #E4291E",
"i. c #E6291E",
"p. c #E6291F",
"a. c #E72A1F",
"s. c #E92A1F",
"d. c #EA2A1F",
"f. c #EB2A1F",
"g. c #835F11",
"h. c #885D12",
"j. c #935714",
"k. c #955614",
"l. c #945714",
"z. c #965614",
"x. c #AB4B17",
"c. c #099E01",
"v. c #189703",
"b. c #3B8508",
"n. c #00A300",
"m. c #05A101",
/* pixels */
"n.n.n.n.n.n.n.n.n.n.n.n.n.n.n.n.n.n.n.n.n.n.n.n.n.n.n.n.n.n.n.n.n.n.n.n.n.n.n.n.n.n.n.n.n.n.n.n.n.n.",
"n.n.n.n.n.n.n.n.n.n.n.n.n.n.n.n.n.n.n.n.n.n.n.n.n.n.n.n.n.n.n.n.n.n.n.n.n.n.n.n.n.n.n.n.n.n.n.n.n.n.",
"n.n.n.n.n.n.n.n.n.n.n.n.n.n.n.n.n.n.n.n.n.n.n.n.n.n.n.n.n.n.n.n.n.n.n.n.n.n.n.n.n.n.n.n.n.n.n.n.n.n.",
"n.n.n.n.n.n.n.n.n.n.n.n.n.n.n.n.n.n.n.n.n.n.n.n.n.n.n.n.n.n.n.n.n.n.n.n.n.n.n.n.n.n.n.n.n.n.n.n.n.n.",
"n.n.n.n.n.n.n.n.n.n.n.n.n.n.n.n.n.n.n.n.n.n.n.n.n.n.n.n.n.n.n.n.n.n.n.n.n.n.n.n.n.n.n.n.n.n.n.n.n.n.",
"n.n.n.n.n.n.n.n.n.n.n.n.n.n.n.n.n.n.n.n.n.n.n.n.n.n.n.n.n.n.n.n.n.n.n.n.n.n.n.n.n.n.n.n.n.n.n.n.n.n.",
"n.n.n.n.n.n.n.n.n.n.n.n.n.n.n.n.n.n.n.n.n.n.n.n.n.n.n.n.n.n.n.n.n.n.n.n.n.n.n.n.n.n.n.n.n.n.n.n.n.n.",
"n.n.n.n.n.n.n.n.n.n.n.n.n.n.n.n.n.n.n.n.n.n.n.n.n.n.n.n.n.n.n.n.n.n.n.n.n.n.n.n.n.n.n.n.n.n.n.n.n.n.",
"n.n.n.n.n.n.n.n.n.n.n.n.n.n.n.n.n.n.n.n.n.n.n.n.n.n.n.n.n.n.n.n.n.n.n.n.n.n.n.n.n.n.n.n.n.n.n.n.n.n.",
"n.n.n.n.n.n.n.n.n.n.n.n.n.n.n.n.n.n.n.n.n.n.n.n.n.n.n.n.n.n.n.n.n.n.n.n.n.n.n.n.n.n.n.n.n.n.n.n.n.n.",
"n.n.n.n.n.n.n.n.n.n.n.n.n.n.n.n.n.n.n.c.b.h.x.d.d.d.d.x.h.b.c.n.n.n.n.n.n.n.n.n.n.n.n.n.n.n.n.n.n.n.",
"n.n.n.n.n.n.n.n.n.n.n.n.n.n.n.n.n.v.g.q.d.d.d.d.d.d.d.d.d.d.q.g.v.n.n.n.n.n.n.n.n.n.n.n.n.n.n.n.n.n.",
"n.n.n.n.n.n.n.n.n.n.n.n.n.n.n.n.I w.d.d.d.d.d.o.' d.d.d.d.d.d.d.e.I n.n.n.n.n.n.n.n.n.n.n.n.n.n.n.n.",
"n.n.n.n.n.n.n.n.n.n.n.n.n.n.m.z.d.d.d.d.d.d.d.y.r l 6.d.d.d.d.d.d.d.z.m.n.n.n.n.n.n.n.n.n.n.n.n.n.n.",
"n.n.n.n.n.n.n.n.n.n.n.n.n.m.j.d.d.d.d.d.d.d.d.d.K   y 9.d.d.d.d.d.d.d.z.m.n.n.n.n.n.n.n.n.n.n.n.n.n.",
"n.n.n.n.n.n.n.n.n.n.n.n.n.z.d.d.d.d.d.d.d.d.d.d.E     V d.d.d.d.d.d.d.d.z.n.n.n.n.n.n.n.n.n.n.n.n.n.",
"n.n.n.n.n.n.n.n.n.n.n.n.I d.d.d.d.d.d.d.d.d.d.3.8     O <.d.d.d.d.d.d.d.d.I n.n.n.n.n.n.n.n.n.n.n.n.",
"n.n.n.n.n.n.n.n.n.n.n.v.w.d.d.d.d.d.d.d.d.d.#.8         K d.d.d.d.d.d.d.d.q.v.n.n.n.n.n.n.n.n.n.n.n.",
"n.n.n.n.n.n.n.n.n.n.n.g.d.d.d.d.d.d.d.d.d.) $           i a.d.d.d.d.d.d.d.d.g.n.n.n.n.n.n.n.n.n.n.n.",
"n.n.n.n.n.n.n.n.n.n.c.q.d.d.d.d.<.) d.d.W O             - y.d.d.d.d.d.d.d.d.q.c.n.n.n.n.n.n.n.n.n.n.",
"n.n.n.n.n.n.n.n.n.n.b.d.d.d.d.6.y >.d.X.+               + <.d.d.d.d.d.a.d.d.d.b.n.n.n.n.n.n.n.n.n.n.",
"n.n.n.n.n.n.n.n.n.n.h.d.d.d.d.b 4 a.a.4                 O -.d.d.d.d.} o.d.d.d.h.n.n.n.n.n.n.n.n.n.n.",
"n.n.n.n.n.n.n.n.n.n.x.d.d.d.O.O 2 a.O.                  O -.d.d.f.6.2 x d.d.d.x.n.n.n.n.n.n.n.n.n.n.",
"n.n.n.n.n.n.n.n.n.n.d.d.d.d.Z   O *./                   + 2.d.a.} 7   q a.d.d.d.n.n.n.n.n.n.n.n.n.n.",
"n.n.n.n.n.n.n.n.n.n.d.d.d.d.l     j o.                  + G M 8       d d.d.d.d.n.n.n.n.n.n.n.n.n.n.",
"n.n.n.n.n.n.n.n.n.n.d.d.d.d.f       x ,           O                   E d.d.d.d.n.n.n.n.n.n.n.n.n.n.",
"n.n.n.n.n.n.n.n.n.n.d.d.d.d.M                 f } i                 r 9.d.a.d.d.n.n.n.n.n.n.n.n.n.n.",
"n.n.n.n.n.n.n.n.n.n.x.d.d.d.} O             S a.}                 : >.d.>.) d.x.n.n.n.n.n.n.n.n.n.n.",
"n.n.n.n.n.n.n.n.n.n.h.d.a.a.y.8           q d.d.o.-             t ,.y.T * >.d.h.n.n.n.n.n.n.n.n.n.n.",
"n.n.n.n.n.n.n.n.n.n.b.d.9.C 9.'           $ =.d.d.#.$   + -   a W V ,   s d.d.b.n.n.n.n.n.n.n.n.n.n.",
"n.n.n.n.n.n.n.n.n.n.c.q.d.c q } b     O +   2 7.d.d.x V *.r             ' d.q.c.n.n.n.n.n.n.n.n.n.n.",
"n.n.n.n.n.n.n.n.n.n.n.g.d.O.O   -     $ K ^ $ >.d.d.O.a.K             j a.d.g.n.n.n.n.n.n.n.n.n.n.n.",
"n.n.n.n.n.n.n.n.n.n.n.v.w.d.m           q d.( d.d.d.a.d.D           * ,.d.e.v.n.n.n.n.n.n.n.n.n.n.n.",
"n.n.n.n.n.n.n.n.n.n.n.n.I d.6.4         G d.d.d.d.d.d.d.#.O         ) d.d.I n.n.n.n.n.n.n.n.n.n.n.n.",
"n.n.n.n.n.n.n.n.n.n.n.n.n.z.d.,.,     q a.d.d.d.d.d.d.d.d.x     + W f.f.z.n.n.n.n.n.n.n.n.n.n.n.n.n.",
"n.n.n.n.n.n.n.n.n.n.n.n.n.m.z.d.,.d   & ,.d.d.d.d.d.d.d.d.b   , } d.d.z.m.n.n.n.n.n.n.n.n.n.n.n.n.n.",
"n.n.n.n.n.n.n.n.n.n.n.n.n.n.m.z.d.y.^ 2 7 o.d.d.d.d.f.y.T - V 6.f.d.z.m.n.n.n.n.n.n.n.n.n.n.n.n.n.n.",
"n.n.n.n.n.n.n.n.n.n.n.n.n.n.n.n.I e.d.a.O.G A U E T G D ) 9.f.f.e.I n.n.n.n.n.n.n.n.n.n.n.n.n.n.n.n.",
"n.n.n.n.n.n.n.n.n.n.n.n.n.n.n.n.n.v.g.q.d.d.d.d.d.d.d.d.f.d.q.g.v.n.n.n.n.n.n.n.n.n.n.n.n.n.n.n.n.n.",
"n.n.n.n.n.n.n.n.n.n.n.n.n.n.n.n.n.n.n.c.b.h.x.d.d.d.d.x.h.b.m.n.n.n.n.n.n.n.n.n.n.n.n.n.n.n.n.n.n.n.",
"n.n.n.n.n.n.n.n.n.n.n.n.n.n.n.n.n.n.n.n.n.n.n.n.n.n.n.n.n.n.n.n.n.n.n.n.n.n.n.n.n.n.n.n.n.n.n.n.n.n.",
"n.n.n.n.n.n.n.n.n.n.n.n.n.n.n.n.n.n.n.n.n.n.n.n.n.n.n.n.n.n.n.n.n.n.n.n.n.n.n.n.n.n.n.n.n.n.n.n.n.n.",
"n.n.n.n.n.n.n.n.n.n.n.n.n.n.n.n.n.n.n.n.n.n.n.n.n.n.n.n.n.n.n.n.n.n.n.n.n.n.n.n.n.n.n.n.n.n.n.n.n.n.",
"n.n.n.n.n.n.n.n.n.n.n.n.n.n.n.n.n.n.n.n.n.n.n.n.n.n.n.n.n.n.n.n.n.n.n.n.n.n.n.n.n.n.n.n.n.n.n.n.n.n.",
"n.n.n.n.n.n.n.n.n.n.n.n.n.n.n.n.n.n.n.n.n.n.n.n.n.n.n.n.n.n.n.n.n.n.n.n.n.n.n.n.n.n.n.n.n.n.n.n.n.n.",
"n.n.n.n.n.n.n.n.n.n.n.n.n.n.n.n.n.n.n.n.n.n.n.n.n.n.n.n.n.n.n.n.n.n.n.n.n.n.n.n.n.n.n.n.n.n.n.n.n.n.",
"n.n.n.n.n.n.n.n.n.n.n.n.n.n.n.n.n.n.n.n.n.n.n.n.n.n.n.n.n.n.n.n.n.n.n.n.n.n.n.n.n.n.n.n.n.n.n.n.n.n.",
"n.n.n.n.n.n.n.n.n.n.n.n.n.n.n.n.n.n.n.n.n.n.n.n.n.n.n.n.n.n.n.n.n.n.n.n.n.n.n.n.n.n.n.n.n.n.n.n.n.n.",
"n.n.n.n.n.n.n.n.n.n.n.n.n.n.n.n.n.n.n.n.n.n.n.n.n.n.n.n.n.n.n.n.n.n.n.n.n.n.n.n.n.n.n.n.n.n.n.n.n.n.",
"n.n.n.n.n.n.n.n.n.n.n.n.n.n.n.n.n.n.n.n.n.n.n.n.n.n.n.n.n.n.n.n.n.n.n.n.n.n.n.n.n.n.n.n.n.n.n.n.n.n."
};
