/* XPM */
static char *pikeball_open_50px[] = {
/* columns rows colors chars-per-pixel */
"50 50 147 2 ",
"   c #0B0B0B",
".  c #040404",
"X  c #140606",
"o  c #141313",
"O  c #1B1A1A",
"+  c #261D1D",
"@  c #232323",
"#  c #2C2C2C",
"$  c #333333",
"%  c #383737",
"&  c #3C3B3B",
"*  c #451D1D",
"=  c #690808",
"-  c #563D3D",
";  c #4B3939",
":  c #653535",
">  c #723B3B",
",  c #2A7B2A",
"<  c #424242",
"1  c #4D4D4D",
"2  c #5A4747",
"3  c #504B4B",
"4  c #584848",
"5  c #535353",
"6  c #5A5A5A",
"7  c #636363",
"8  c #6D6D6D",
"9  c #747373",
"0  c #787777",
"q  c #7D7D7D",
"w  c #9C0909",
"e  c #841111",
"r  c #901C1C",
"t  c #A50202",
"y  c #A91F1F",
"u  c #A91313",
"i  c #8E2828",
"p  c #992020",
"a  c #8E3030",
"s  c #AB2323",
"d  c #B22121",
"f  c #DC0505",
"g  c #CB1414",
"h  c #C11B1B",
"j  c #D41313",
"k  c #EC0202",
"l  c #EC0808",
"z  c #E40909",
"x  c #F10606",
"c  c #FF0101",
"v  c #FF0B0B",
"b  c #FF1212",
"n  c #FF1B1B",
"m  c #FF2424",
"M  c #FF2A2A",
"N  c #FF3B3B",
"B  c #FF3333",
"V  c #BF4920",
"C  c #BF5E35",
"Z  c #BF6037",
"A  c #BF633A",
"S  c #927F56",
"D  c #BF6B43",
"F  c #BF744B",
"G  c #BF7950",
"H  c #A97878",
"J  c #FF4343",
"K  c #FF4949",
"L  c #FF5252",
"P  c #FF5C5C",
"I  c #FF6262",
"U  c #FF6B6B",
"Y  c #FF7676",
"T  c #FF7B7B",
"R  c #00A300",
"E  c #3A8C3A",
"W  c #3E903E",
"Q  c #34AE34",
"!  c #3FAF34",
"~  c #37B137",
"^  c #3FB035",
"/  c #3CB63C",
"(  c #409E23",
")  c #40A025",
"_  c #40A228",
"`  c #40A92F",
"'  c #40B53A",
"]  c #429442",
"[  c #4A9B4A",
"{  c #7F9341",
"}  c #7F9E4C",
"|  c #57A857",
" . c #5DAE5D",
".. c #7FA957",
"X. c #6BBD6B",
"o. c #6EC06E",
"O. c #72C472",
"+. c #76C876",
"@. c #79C877",
"#. c #78CA78",
"$. c #808332",
"%. c #808B3A",
"&. c #809846",
"*. c #809443",
"=. c #BF8158",
"-. c #BF8961",
";. c #80B462",
":. c #828282",
">. c #888787",
",. c #8C8B8B",
"<. c #938D8D",
"1. c #939393",
"2. c #989797",
"3. c #9B9B9B",
"4. c #81AA81",
"5. c #87B087",
"6. c #8DB58C",
"7. c #95BD95",
"8. c #A3A3A3",
"9. c #AAAAAA",
"0. c #B4B4B4",
"q. c #B8B7B7",
"w. c #BCBBBB",
"e. c #FF8383",
"r. c #FF8D8D",
"t. c #FF9494",
"y. c #FF9A9A",
"u. c #FFA4A4",
"i. c #FFAFAF",
"p. c #FFB7B7",
"a. c #97C097",
"s. c #99C199",
"d. c #A4CCA3",
"f. c #ACD5AC",
"g. c #B4DDB4",
"h. c #C3C3C3",
"j. c #CBCBCB",
"k. c #D2D2D2",
"l. c #DBDBDB",
"z. c #FEC1C1",
"x. c #FDCBCB",
"c. c #FAD9D9",
"v. c #E4E4E4",
"b. c #ECECEC",
"n. c #F4E7E7",
"m. c #F1EEEE",
"M. c #F2F2F2",
/* pixels */
"R R R R R R R R R R R R R R R R R R ' } F P M b c c b M L D *.' R R R R R R R R R R R R R R R R R R ",
"R R R R R R R R R R R R R R R R _ D M c c c c c c c c c c c c n U ..R R R R R R R R R R R R R R R R ",
"R R R R R R R R R R R R R R ` C b M J K N m v c c c c c c c c c c v I ..R R R R R R R R R R R R R R ",
"R R R R R R R R R R R R R %.m b N U t.u.r.P B v c c c c c c c c c c c v =.R R R R R R R R R R R R R ",
"R R R R R R R R R R R ' A c v N I y.x.m.z.r.L M c c c c c c c c c c c c c V ^ R R R R R R R R R R R ",
"R R R R R R R R R R R I c c n K T u.x.c.z.y.U N v c c c c c c c c c c c c c N ! R R R R R R R R R R ",
"R R R R R R R R R ' I c c c m L Y y.i.p.i.t.U J n c c c c c c c c c c c c c c N ^ R R R R R R R R R ",
"R R R R R R R R R D c c c c m K U e.y.y.t.e.I J n c c c c c c c c c c c c c c c P R R R R R R R R R ",
"R R R R R R R R { v c c c c n N P U T e.T U K N b c c c c c c c c c c c c c c c c =.R R R R R R R R ",
"R R R R R R R ! m c c c c c b M K L I I P L J m v c c c c c c c g p r u z c c c c b ( R R R R R R R ",
"R R R R R R R F c c c c c c c n M N K K J B M b c c c c c c z : & $ # # + u c c c c I R R R R R R R ",
"R R R R R R ! n c c c c c c c c b m M M M m b c c c c c c l - & 7 3.9.9 O o w c c c v ( R R R R R R ",
"R R R R R R -.c c c c c c c c c c c b b b v c c c c c c c i & 9 b.b.b.l.2.o X k c c c C R R R R R R ",
"R R R R R R J c c c c c c c c x z j j h d d s s s y y s y ; & l.b.M.M.M.j.; . t c c c n ' R R R R R ",
"R R R R R ` c c c x g s i > 4 3 1 1 1 1 1 1 1 1 1 < < < < % 1 b.M.M.M.M.k.7 . = z c c c *.R R R R R ",
"R R R R R $.x s > 3 1 1 1 1 1 1 1 1 1 1 1 1 1 1 1 < < < & $ % v.b.M.M.M.h.1 . o @ * e f G R R R R R ",
"R R R R R *.4 1 1 1 1 1 < & $ @ @ O O O O O O @ @ @ # # $ # @ 1.l.v.b.j.8.o . O @ @ @ + H R R R R R ",
"R R R R R <.1 1 & @ o   O @ $ < < 1 1 1 5 6 6 5 6 6 5 6 6 1 @ O 9 9.8.q O . @ < & # @ O 9 R R R R R ",
"R R R R R :.@   O 1 8 0 :.>.:.:.:.q :.:.:.q q :.:.:.q q q q 6 o   .   . . @ 0 9 8 6 1 & 9 R R R R R ",
"R R R R R 5 . $ 3.8.8.8.8.8.8.8.8.8.8.8.8.8.8.8.8.8.8.8.8.8.8.>.< o o # 7 8.8.8.8.8.8 1 1.R R R R R ",
"R R R R R 4.@ o 0 w.w.w.w.w.w.w.w.w.w.w.w.w.w.w.w.w.w.w.w.w.w.w.w.w.w.w.w.w.w.w.q.3.6 6 5.R R R R R ",
"R R R R R R / , 6 @ < 9 2.w.j.k.j.k.k.k.k.k.k.k.k.j.k.k.k.j.k.k.k.k.k.j.h.9.3.0 7 :.E ~ R R R R R R ",
"R R R R R R / g.M.b.j.9.:.6 < 1 & 1 6 6 8 q ,.1.2.2.2.2.,.:.0 q 9 8 q 0 <.8.W  .~ R R R R R R R R R ",
"R R R R R R b.M.v.q.9.9.0.h.j.v.b.v.f.| ] E E W W W ] ] ] [  .Q R #.R R R R R R R R R R R R R R R R ",
"R R R R R [ q.v.b.0.9.8.3.3.1.1.3.0.j.v.g.#.R R R R R R R R R R R R R R R R R R R R R R R R R R R R ",
"R R R R R X.q.q.l.v.0.9.9.3.3.2.1.1.,.,.8.w.l.f.#.R R R R R R R R R R R R R R R R R R R R R R R R R ",
"R R R R R s.0.0.0.k.b.h.9.9.9.3.3.3.1.1.>.>.>.2.w.k.f.#.R R R R R R R R R R R R R R R R R R R R R R ",
"R R R R R j.0.0.q.q.w.v.v.w.9.9.9.3.3.2.1.1.,.>.>.:.3.w.l.o./ R R R R R R R R R R R R R R R R R R R ",
"R R R R R j.0.0.0.0.0.q.j.v.l.q.9.9.8.3.2.2.1.1.,.>.:.:.,.8.j.d./ R R R R R R R R R R R R R R R R R ",
"R R R R R h.0.0.0.0.0.q.h.h.k.b.l.w.9.9.8.8.3.1.1.,.,.>.:.:.:.2.q.k.O.R R R R R R R R R R R R R R R ",
"R R R R R h.0.0.0.0.q.q.w.h.h.k.k.b.v.h.9.8.8.3.2.2.1.,.>.>.:.q :.1.9.j.O.R R R R R R R R R R R R R ",
"R R R R R h.0.0.0.0.q.w.h.h.h.j.k.k.l.v.v.h.0.9.3.3.2.2.,.,.,.>.:.q :.1.8.j./ R R R R R R R R R R R ",
"R R R R R k.0.0.0.0.q.w.h.h.j.j.k.k.k.l.l.v.v.l.w.9.3.3.2.1.1.,.,.:.q :.:.,.8.7./ R R R R R R R R R ",
"R R R R R s.0.0.0.q.w.w.h.j.j.k.k.l.l.l.l.v.v.v.v.l.h.0.8.3.1.1.,.,.>.:.q :.:.,.9.X.R R R R R R R R ",
"R R R R R X.0.0.0.q.h.h.h.j.j.k.k.k.l.l.l.v.v.v.v.v.v.v.k.h.9.3.1.1.,.,.>.:.:.:.>.3.s.R R R R R R R ",
"R R R R R / q.0.q.q.h.h.h.j.j.k.k.l.l.l.l.v.v.v.v.b.b.b.b.v.l.j.w.9.8.1.,.>.>.:.:.>.3.a.R R R R R R ",
"R R R R R R j.0.q.q.h.h.j.j.k.k.k.l.l.l.v.v.v.v.b.b.b.b.b.b.b.b.v.l.h.q.9.8.2.1.,.1.3.8.R R R R R R ",
"R R R R R R ~ q.q.h.h.h.k.j.k.k.l.l.l.l.v.v.v.v.b.b.b.b.b.b.b.v.b.b.b.b.v.k.h.w.0.9.w.k.R R R R R R ",
"R R R R R R R 6.w.h.h.h.j.k.k.k.l.l.l.l.v.v.v.v.b.b.b.b.b.v.v.v.l.v.v.v.v.v.v.b.M.M.M.#.R R R R R R ",
"R R R R R R R o.h.h.h.k.j.k.k.k.l.l.l.v.v.v.v.b.b.b.b.b.b.l.l.k.k.l.l.l.l.l.v.M.M.M.M.R R R R R R R ",
"R R R R R R R R a.h.h.j.j.k.k.l.l.l.v.v.v.v.v.b.b.b.b.b.b.b.j.j.j.h.j.k.k.k.b.M.M.M./ R R R R R R R ",
"R R R R R R R R / h.j.j.k.k.k.l.l.l.v.v.v.v.v.b.b.b.b.b.b.b.b.h.q.q.w.w.h.v.M.M.M.g.R R R R R R R R ",
"R R R R R R R R R O.k.j.k.k.k.l.l.l.v.v.v.v.b.b.b.b.b.M.M.M.M.M.v.k.k.v.m.M.M.M.g.R R R R R R R R R ",
"R R R R R R R R R R f.k.k.k.k.v.l.v.v.v.v.v.b.b.b.b.b.b.b.M.M.M.M.M.M.M.M.M.M.g.R R R R R R R R R R ",
"R R R R R R R R R R R f.l.k.l.l.l.v.v.v.v.v.b.b.b.b.b.M.m.M.M.M.M.M.M.M.M.M.g.R R R R R R R R R R R ",
"R R R R R R R R R R R R / l.l.l.l.v.v.v.b.b.b.b.b.b.M.M.m.M.M.M.M.M.M.M.M.g.R R R R R R R R R R R R ",
"R R R R R R R R R R R R R / f.v.l.v.v.v.b.b.b.b.b.b.b.b.M.M.M.M.M.M.M.M./ R R R R R R R R R R R R R ",
"R R R R R R R R R R R R R R R / b.v.v.v.b.b.b.b.b.b.M.M.M.M.M.M.M.M.#.R R R R R R R R R R R R R R R ",
"R R R R R R R R R R R R R R R R R / g.b.b.b.b.b.b.b.M.m.m.M.M.g.#.R R R R R R R R R R R R R R R R R ",
"R R R R R R R R R R R R R R R R R R R R / +.+.g.g.b.@.@.#.#.R R R R R R R R R R R R R R R R R R R R "
};
