/* XPM */
static char *pokeball_50px[] = {
/* columns rows colors chars-per-pixel */
"50 50 152 2 ",
"   c #2A2425",
".  c #2D2A2B",
"X  c #372223",
"o  c #312C2D",
"O  c #322F31",
"+  c #343233",
"@  c #383435",
"#  c #363638",
"$  c #3A3738",
"%  c #3E3C3D",
"&  c #452424",
"*  c #4B2524",
"=  c #542725",
"-  c #572826",
";  c #5C2826",
":  c #572A28",
">  c #4C3B3C",
",  c #533636",
"<  c #5F3433",
"1  c #533837",
"2  c #523939",
"3  c #632A27",
"4  c #6E2C29",
"5  c #752C29",
"6  c #7C2E2A",
"7  c #72322F",
"8  c #7D322F",
"9  c #633432",
"0  c #683331",
"q  c #773330",
"w  c #793330",
"e  c #1D431B",
"r  c #22431B",
"t  c #2B431A",
"y  c #2A481F",
"u  c #31441B",
"i  c #3A451C",
"p  c #136211",
"a  c #196514",
"s  c #234921",
"d  c #2E542C",
"f  c #365D35",
"g  c #493F40",
"h  c #464344",
"j  c #494546",
"k  c #474648",
"l  c #494748",
"z  c #4B4A4C",
"x  c #514E4E",
"c  c #4F4E50",
"v  c #514F50",
"b  c #4F5052",
"n  c #545355",
"m  c #585556",
"M  c #575758",
"N  c #585759",
"B  c #58585A",
"V  c #605D5E",
"C  c #605F60",
"Z  c #646163",
"A  c #696667",
"S  c #6D6B6B",
"D  c #706D6E",
"F  c #716F70",
"G  c #757273",
"H  c #787576",
"J  c #7A7778",
"K  c #7D7A7B",
"L  c #802F2B",
"P  c #87332F",
"I  c #8C322D",
"U  c #92322E",
"Y  c #9E342F",
"T  c #AA352F",
"R  c #A4342E",
"E  c #B3362F",
"W  c #B43630",
"Q  c #BA3730",
"!  c #BD3831",
"~  c #C53931",
"^  c #CE3A32",
"/  c #D33B33",
"(  c #DA3D34",
")  c #E63E35",
"_  c #EB3F35",
"`  c #EF4036",
"'  c #EE4339",
"]  c #EF483E",
"[  c #F04036",
"{  c #F0463D",
"}  c #92706E",
"|  c #807E7E",
" . c #B57774",
".. c #CC554F",
"X. c #E94E45",
"o. c #F04B42",
"O. c #EF544B",
"+. c #F1554C",
"@. c #F05B52",
"#. c #F1635B",
"$. c #F26C65",
"%. c #F47770",
"&. c #F47D76",
"*. c #098208",
"=. c #00A300",
"-. c #F48079",
";. c #858383",
":. c #8D8B8C",
">. c #918F8F",
",. c #908F90",
"<. c #949192",
"1. c #999696",
"2. c #9A9798",
"3. c #9C9999",
"4. c #A19E9E",
"5. c #A4A1A1",
"6. c #A8A6A6",
"7. c #AAA7A8",
"8. c #ADABAC",
"9. c #B0AFAF",
"0. c #B4B3B3",
"q. c #BAB7B8",
"w. c #BCBABA",
"e. c #F58781",
"r. c #F5908A",
"t. c #F69791",
"y. c #C0BEBE",
"u. c #CABCBC",
"i. c #F9B6B3",
"p. c #FABDB9",
"a. c #C4C2C2",
"s. c #CCCACB",
"d. c #D0CECE",
"f. c #D3D1D1",
"g. c #D8D6D6",
"h. c #DDDCDC",
"j. c #FACECB",
"k. c #FBD0CE",
"l. c #E0DEDE",
"z. c #FBD5D3",
"x. c #FCDFDE",
"c. c #F4D5D3",
"v. c #E3E2E2",
"b. c #E8E7E7",
"n. c #EBE7E8",
"m. c #ECEBEB",
"M. c #FCE3E2",
"N. c #F0EFEF",
"B. c #FEECEB",
"V. c #F2F2F2",
"C. c #FEF3F3",
"Z. c #FFFFFF",
/* pixels */
"=.=.=.=.=.=.=.=.=.=.=.=.=.=.=.=.=.=.=.p a X * 3 3 3 3 * X a p =.=.=.=.=.=.=.=.=.=.=.=.=.=.=.=.=.=.=.",
"=.=.=.=.=.=.=.=.=.=.=.=.=.=.=.=.p & 6 E ( _ _ _ _ _ [ [ _ ( E L & a =.=.=.=.=.=.=.=.=.=.=.=.=.=.=.=.",
"=.=.=.=.=.=.=.=.=.=.=.=.=.*.t 5 ^ _ _ _ [ [ [ [ _ [ [ [ [ _ _ _ _ ~ 5 t *.=.=.=.=.=.=.=.=.=.=.=.=.=.",
"=.=.=.=.=.=.=.=.=.=.=.=.r 6 / _ _ [ _ _ [ [ [ [ [ [ [ [ [ _ _ _ ` ` _ ( 6 t =.=.=.=.=.=.=.=.=.=.=.=.",
"=.=.=.=.=.=.=.=.=.=.*.: ..%.&.#.{ _ _ _ [ [ [ [ [ [ [ [ [ [ [ [ ` ` ` ` _ ^ - *.=.=.=.=.=.=.=.=.=.=.",
"=.=.=.=.=.=.=.=.=.e } c.C.Z.Z.Z.j.@._ _ [ [ [ [ [ [ [ [ [ [ [ [ ` ` ` ` [ _ _ U r =.=.=.=.=.=.=.=.=.",
"=.=.=.=.=.=.=.=.d q.Z.Z.Z.Z.Z.Z.Z.z.{ _ [ [ [ [ [ [ [ [ [ [ [ [ [ ` ` ` [ [ ` [ E t =.=.=.=.=.=.=.=.",
"=.=.=.=.=.=.=.d f.Z.Z.Z.Z.Z.Z.Z.Z.Z.$._ [ [ [ [ [ [ [ [ [ [ [ [ ` ` ` [ [ [ ` ` _ ~ u =.=.=.=.=.=.=.",
"=.=.=.=.=.=.y u.Z.Z.Z.Z.Z.Z.Z.Z.Z.Z.&.` ` ` ` ` [ [ ` ` ` ` ` ` ` ` ` ` ` ` ` ` [ [ ~ t =.=.=.=.=.=.",
"=.=.=.=.=.r  .Z.Z.Z.Z.Z.Z.Z.Z.Z.Z.Z.$.` ` ` ` ` ` [ ` ` ` [ ` ` ` ` ` ` ` ` ` ` [ [ [ Q r =.=.=.=.=.",
"=.=.=.=.*.P j.Z.Z.Z.Z.Z.Z.Z.Z.Z.Z.M.o.` ` ` ` ` ` ` ` ` ` ` ` ` ` ` ` ` ` ` ` [ [ [ _ _ I *.=.=.=.=.",
"=.=.=.=.= X.C.Z.Z.Z.Z.Z.Z.Z.Z.Z.Z.t.` ` ` ` ` ` ` ` ` ` ` ` ` ` [ ` ` ` ` ` ` ` [ [ _ _ _ - =.=.=.=.",
"=.=.=.r ~ +.C.Z.Z.Z.Z.Z.Z.Z.Z.Z.j.o._ _ ` ` ` ` [ [ [ _ ` [ [ ` _ [ [ ` ` ` ` ` ` ` ` ` ` ~ t =.=.=.",
"=.=.*.5 _ ] x.Z.Z.Z.Z.Z.Z.Z.Z.z.+.` [ [ ` ` ` ` [ [ [ _ / W R T ~ ) [ [ ` ` ` ` ` ` ` [ ` ` 6 *.=.=.",
"=.=.t ^ [ [ r.Z.Z.Z.Z.Z.Z.C.p.o.[ [ [ [ ` ` ` ` [ _ W < h z c c l 2 P ( [ ` ` ` ` ` ` ` ` ` / r =.=.",
"=.=.4 ` [ [ ' e.x.C.C.C.p.$.' ` [ [ [ [ ` ` ` ` ) P j B B B B B N N n 1 ! ` ` ` ` ` ` ` ` ` ` 5 =.=.",
"=.p W ` ` ` ` ` ' +.+.{ _ [ [ [ [ ` ` ` _ [ [ _ q n N n k C | J B z N m > ! [ [ [ ` ` ` ` ` ` W p =.",
"=.u ` ` ` ` ` ` _ [ [ [ [ [ [ _ ` ` ` ` _ _ [ U z N n C f.C.l.v.V.s.m n B 1 ( [ [ [ ` ` ` ` ` ` i =.",
"=.5 ` ` ` ` ` ` [ [ [ [ [ [ _ _ [ [ [ [ _ ) ^ > N n Z N.a.0.d.d.9.s.n.m B n P ` ` ` ` ` ` ` ` ` 8 =.",
"p T ` ` ` ` ` ` [ [ [ [ [ _ / E U w 0 , 2 > h n N z g.y.h.Z.Z.Z.Z.f.s.a.z n 1 ) [ ` [ ` ` ` ` ` T p ",
"a ^ _ [ ` ` ` ` [ _ ~ U 0 > h z n B B B B B B B N S m.w.Z.Z.Z.Z.Z.Z.q.V.B B l 7 T ( ` ` ` ` ` ` / a ",
"t ) [ [ ` [ ` W 8 2 k n B B B B B B B B B B B B n >.g.h.Z.Z.Z.Z.Z.Z.s.l.| B B n z h < Y ( ` ` ` ) u ",
"& ` [ _ Q w 2 z n B B B B B B B B B B B B B B B n <.f.l.Z.Z.Z.Z.Z.Z.f.h.;.B B B B B B c > q ~ ` _ * ",
"= ^ U 1 z B B B B B B B B B B B B B B B B B B B B F m.w.Z.Z.Z.Z.Z.Z.q.V.C B B B B B B B B n j 9 T = ",
"  O k B B B B B B B B B B B B B B B B B B B B B B z l.w.v.Z.Z.Z.Z.h.y.d.z B B B B B B B B B B B z o ",
". $ % B B B B B B B B B B B c z z z B S H ;.K z B n S V.q.w.h.h.q.w.N.C n B B B B B B B B B B B B % ",
". # # z B B B B B n z z Z :.8.d.n.C.Z.Z.Z.Z.Z.F n B c S v.N.f.f.N.h.Z n B z b k z B B B B B B B B % ",
"  $ # # h n z k n 3.d.V.Z.Z.Z.Z.Z.Z.Z.Z.Z.Z.Z.h.n B B n z S <.<.S l n B c ,.Z.h.0.J n z n B B B B $ ",
"r # # + # n J 1.5.m.Z.Z.Z.Z.Z.Z.Z.Z.Z.Z.Z.Z.Z.Z.s.n B B B B n n B B B z ;.C.Z.Z.Z.Z.Z.s.:.B l n B O ",
"p + x J 1.4.4.4.3.s.Z.Z.Z.Z.Z.Z.Z.Z.Z.Z.Z.Z.Z.Z.Z.h.S z n B B B B c c 7.Z.Z.Z.Z.Z.Z.Z.Z.Z.C.s.| z a ",
"p G 4.4.4.4.4.4.4.8.C.Z.Z.Z.Z.Z.Z.Z.Z.Z.Z.Z.Z.Z.Z.Z.Z.s.:.A B C H 8.m.Z.Z.Z.Z.Z.Z.Z.Z.Z.Z.Z.Z.Z.6.p ",
"=.B 4.4.4.4.4.4.4.4.v.Z.Z.Z.Z.Z.Z.Z.Z.Z.Z.Z.Z.Z.Z.Z.Z.Z.Z.Z.Z.Z.Z.Z.Z.Z.Z.Z.Z.Z.Z.Z.Z.Z.Z.Z.Z.Z.H =.",
"=.d 3.5.4.4.4.4.4.4.0.C.Z.Z.Z.Z.Z.Z.Z.Z.Z.Z.Z.Z.Z.Z.Z.Z.Z.Z.Z.Z.Z.Z.Z.Z.Z.Z.Z.Z.Z.Z.Z.Z.Z.Z.Z.V.f =.",
"=.p | 4.4.4.4.4.4.4.4.g.Z.Z.Z.Z.Z.Z.Z.Z.Z.Z.Z.Z.Z.Z.Z.Z.Z.Z.Z.Z.Z.Z.Z.Z.Z.Z.Z.Z.Z.Z.Z.Z.Z.Z.Z.w.p =.",
"=.=.x 3.4.4.4.4.4.4.4.6.V.Z.Z.Z.Z.Z.Z.Z.Z.Z.Z.Z.Z.Z.Z.Z.Z.Z.Z.Z.Z.Z.Z.Z.Z.Z.Z.Z.Z.Z.Z.Z.Z.Z.Z.A =.=.",
"=.=.r :.4.4.4.4.4.4.4.4.q.Z.Z.Z.Z.Z.Z.Z.Z.Z.Z.Z.Z.Z.Z.Z.Z.Z.Z.Z.Z.Z.Z.Z.Z.Z.Z.Z.Z.Z.Z.Z.Z.Z.g.s =.=.",
"=.=.*.n 3.4.4.4.4.4.4.4.3.s.Z.Z.Z.Z.Z.Z.Z.Z.Z.Z.Z.Z.Z.Z.Z.Z.Z.Z.Z.Z.Z.Z.Z.Z.Z.Z.Z.Z.Z.Z.Z.Z.S *.=.=.",
"=.=.=.s ;.4.4.4.4.4.4.4.4.5.s.Z.Z.Z.Z.Z.Z.Z.Z.Z.Z.Z.Z.Z.Z.Z.Z.Z.Z.Z.Z.Z.Z.Z.Z.Z.Z.Z.Z.Z.Z.w.e =.=.=.",
"=.=.=.=.% 3.4.4.4.4.4.4.4.4.4.s.Z.Z.Z.Z.Z.Z.Z.Z.Z.Z.Z.Z.Z.Z.Z.Z.Z.Z.Z.Z.Z.Z.Z.Z.Z.Z.Z.Z.s.% =.=.=.=.",
"=.=.=.=.*.B 4.4.4.4.4.4.4.4.4.4.y.C.Z.Z.Z.Z.Z.Z.Z.Z.Z.Z.Z.Z.Z.Z.Z.Z.Z.Z.Z.Z.Z.Z.Z.Z.C.a.n *.=.=.=.=.",
"=.=.=.=.=.e F 4.4.4.4.4.4.4.4.4.4.8.v.Z.Z.Z.Z.Z.Z.Z.Z.Z.Z.Z.Z.Z.Z.Z.Z.Z.Z.Z.Z.Z.Z.b.0.S e =.=.=.=.=.",
"=.=.=.=.=.=.s J 4.4.4.4.4.4.4.4.4.4.5.y.m.Z.Z.Z.Z.Z.Z.Z.Z.Z.Z.Z.Z.Z.Z.Z.Z.Z.Z.V.a.5.J r =.=.=.=.=.=.",
"=.=.=.=.=.=.=.s J 4.4.4.4.4.4.4.4.4.4.4.5.w.b.C.Z.Z.Z.Z.Z.Z.Z.Z.Z.Z.Z.Z.Z.v.y.5.4.J s =.=.=.=.=.=.=.",
"=.=.=.=.=.=.=.=.r G 4.4.4.4.4.4.4.4.4.4.5.3.4.6.y.f.b.V.Z.C.C.Z.V.n.g.y.6.4.4.4.S e =.=.=.=.=.=.=.=.",
"=.=.=.=.=.=.=.=.=.e n 1.4.4.4.4.4.4.4.4.4.4.4.4.4.4.4.5.5.6.6.5.5.4.4.4.4.4.2.n e =.=.=.=.=.=.=.=.=.",
"=.=.=.=.=.=.=.=.=.=.*.# J 4.4.4.4.4.4.4.4.4.4.4.4.4.5.3.4.4.4.4.4.4.4.4.4.J @ *.=.=.=.=.=.=.=.=.=.=.",
"=.=.=.=.=.=.=.=.=.=.=.=.e j ;.5.3.5.4.4.4.4.4.4.4.4.4.4.4.4.4.4.4.4.3.;.l e =.=.=.=.=.=.=.=.=.=.=.=.",
"=.=.=.=.=.=.=.=.=.=.=.=.=.*.e j H 2.5.4.4.4.4.4.4.4.4.4.4.4.4.4.1.H j e *.=.=.=.=.=.=.=.=.=.=.=.=.=.",
"=.=.=.=.=.=.=.=.=.=.=.=.=.=.=.=.p . j A ;.<.3.4.4.4.4.3.<.;.A j . p =.=.=.=.=.=.=.=.=.=.=.=.=.=.=.=.",
"=.=.=.=.=.=.=.=.=.=.=.=.=.=.=.=.=.=.=.p p   . $ $ # @ o   a p =.=.=.=.=.=.=.=.=.=.=.=.=.=.=.=.=.=.=."
};
