/* XPM */
static char *tree_50px[] = {
/* columns rows colors chars-per-pixel */
"50 50 124 2 ",
"   c #2E2F32",
".  c #272F38",
"X  c #302F31",
"o  c #2D3236",
"O  c #273038",
"+  c #28353A",
"@  c #2A3B3D",
"#  c #343130",
"$  c #3B3531",
"%  c #363739",
"&  c #363839",
"*  c #452819",
"=  c #492C1C",
"-  c #4E3020",
";  c #513423",
":  c #563928",
">  c #5B3C2C",
",  c #4E3C32",
"<  c #603F2E",
"1  c #354814",
"2  c #146B1C",
"3  c #23660D",
"4  c #26680F",
"5  c #1D4D2A",
"6  c #2C403F",
"7  c #167321",
"8  c #187723",
"9  c #197923",
"0  c #286636",
"q  c #62442E",
"w  c #614131",
"e  c #684635",
"r  c #6B4A35",
"t  c #6F4E38",
"y  c #74533B",
"u  c #795A3E",
"i  c #2C3F40",
"p  c #2D4341",
"a  c #2F4A43",
"s  c #314C45",
"d  c #315146",
"f  c #335348",
"g  c #395749",
"h  c #345C4C",
"j  c #3B5A4A",
"k  c #36634E",
"l  c #3A654D",
"z  c #3A694F",
"x  c #376C51",
"c  c #386E52",
"v  c #377053",
"b  c #397253",
"n  c #3D7A55",
"m  c #42644E",
"M  c #44684F",
"N  c #4B6B51",
"B  c #477554",
"V  c #4D7453",
"C  c #427C56",
"Z  c #557E56",
"A  c #587C56",
"S  c #0A860E",
"D  c #118406",
"F  c #0C8D12",
"G  c #0D9113",
"H  c #00A300",
"J  c #1C8A29",
"K  c #3F8156",
"L  c #418257",
"P  c #4E8657",
"I  c #438857",
"U  c #438558",
"Y  c #4C8659",
"T  c #448B59",
"R  c #4E8859",
"E  c #518D5B",
"W  c #5B8C5B",
"Q  c #46915A",
"!  c #49945B",
"~  c #4B9C5D",
"^  c #5B915D",
"/  c #529B5D",
"(  c #5C995F",
")  c #64955D",
"_  c #62995E",
"`  c #6A9C5F",
"'  c #4DA15E",
"]  c #52A35F",
"[  c #619E60",
"{  c #699F60",
"}  c #56A560",
"|  c #5BA460",
" . c #5CAA62",
".. c #66A362",
"X. c #69A562",
"o. c #63AC63",
"O. c #6CAC64",
"+. c #71AD65",
"@. c #6CB265",
"#. c #73B567",
"$. c #78B567",
"%. c #74B867",
"&. c #75B768",
"*. c #7BB768",
"=. c #76B968",
"-. c #7CBB69",
";. c #84B369",
":. c #81BE6A",
">. c #89BF6C",
",. c #86C26B",
"<. c #8BC56D",
"1. c #8FC86E",
"2. c #91C66E",
"3. c #93C96F",
"4. c #98C570",
"5. c #97CC70",
"6. c #9ACD71",
"7. c #9DD072",
"8. c #A3CB72",
"9. c #A4D374",
"0. c #A9D675",
"q. c #ADD876",
"w. c #B0D977",
"e. c #B5DD79",
/* pixels */
"H H H H H H H H H H H H H H H H H H H H H H b c b c c c H H H H H H H H H H H H H H H H H H H H H H ",
"H H H H H H H H H H H H H H H H H H H H J n W E C C E ^ C J H H H H H H H H H H H H H H H H H H H H ",
"H H H H H H H H H H H H H H H H H H G x L P C ;.e.e.;.C R C x F H H H H H H H H H H H H H H H H H H ",
"H H H H H H H H H H H H H H H 2 + O + 6 k B <.9.e.e.0.<.C h i + O + 2 H H H H H H H H H H H H H H H ",
"H H H H H H H H H H H H H H + @ s a s 6 m A w.e.e.e.e.w.A l a a s a @ o H H H H H H H H H H H H H H ",
"H H H H H H H H H H H H F 7 a 6 @ C ! | -.<.0.e.e.e.w.0.<.-. .E C @ 6 s 8 F H H H H H H H H H H H H ",
"H H H H H H H H H H H 7 0 g g m V ^ X.6.<.,.,.6.0.0.5.<.<.<.5.X.W V m g g 0 8 H H H H H H H H H H H ",
"H H H H H H H H H H H a g M V ) ,.<.6.e.3.,.,.,.,.,.,.,.,.5.e.6.<.<.) V M g a H H H H H H H H H H H ",
"H H H H H H H H H S 2 a a 6 ) X.@.o.=.7.-.%.,.3.6.6.3.,.#.:.9.=.o.#.X.( a a 6 2 S H H H H H H H H H ",
"H H H H H H H H H 2 @ i f l L I T $.,.>./ Q ,.7.e.e.9.,.Q / ,.,.$.T K K l d 6 @ 2 H H H H H H H H H ",
"H H H H H H H H 8 0 s @ k I o.| T o.o.[ C C X.,.8.7.,.o.C C ( X. .T | o.I k @ d 0 8 H H H H H H H H ",
"H H H H H H F 9 m j j W _ ..:.-.@.#.O...! T L Q ( ( E K T Q ..@.%.@.-.:..._ W g g m 9 F H H H H H H ",
"H H H H H H 8 s g Z ` :.,.,.O.-.9.0.6.,.=.#.X.X.X.X.X.X.@.=.,.6.0.9.-.O.,.,.:.` Z g d 8 H H H H H H ",
"H H H H H H 7 a s P o.o.o.o.<.9.e.7.3.,.,.<.0.0.0.9.0.0.<.,.,.3.6.e.9.<.o. .o.o.R a p 7 H H H H H H ",
"H H H H S 2 a a + d z ~ T L >.3.3.<.,.,.,.,.3.0.e.e.0.3.<.,.,.,.<.3.3.<.L T ~ z d @ s p 2 S H H H H ",
"H H H H 2 . + a L I T n X.3.<.,.,.,.=. .=.,.,.<.1.3.<.,.,.=. .-.,.>.<.,.4.X.C T U U p @ . 2 H H H H ",
"H H H H 2 + . a ~ ~ ~ c [ 1.,.,.,. .@.9.<.,.,.,.,.,.,.,.,.1.7.@. .:.,.,.1.[ c ~ ' ~ a . . 2 H H H H ",
"H H H H 7 @ j m h ) $.n T } :.,.,.Y W e.3.,.,.@.} } @.,.,.5.e.^ Y :.,.:.} R n &.[ g m j @ 7 H H H H ",
"H H H s s k g N 8.2.,.:.( n U C U b Y ,.>.=.| T b n T } =.,.,.R b U C U n ( =.,.2.8.N g h g s H H H ",
"H H H s s s U | <.,.,.,.:.:.-.-.-.} ! U U L n T ~ ~ T b C U K ! | -.:.-.:.,.,.,.>.,.| U s s a H H H ",
"H H H a p a { :.:.:.-.| ,.w.<.,.,.,.,.:.:.:.:.o.} ' o.,.,.-.:.,.,.,.,.<.w.:.| *.:.:.:.{ s p a H H H ",
"H 2 + @ p + C ! ~ T R q.9.<.,.,.>.,.<.,.,.,.:.,.,.,.,.:.,.,.,.,.,.,.,.,.<.9.0.E T ~ Q C + p p O 2 H ",
". @ p @ a c a p c ..,.w.q.0.,.#. .7.9.,.:.=.} @.,.,.@.} =.-.,.0.7. .%.,.q.w.w.<...x p s c a @ p @ O ",
". . O k x x b n n [ $.,.,.,./ @.q.<.,.,. .} <.3.1.1.5.<.}  .,.,.<.w.@./ -.,.:.&.[ n C b x x k + . O ",
"O @ p k z M R ' ' T U &.$.+.n E ,.,.,.,. .| 0.e.e.e.e.0.| | ,.,.,.,.E C +.&.=.U T ' ' Q m z k i @ O ",
"p s j m W :. .' ' ' ~ ' T n v R +.:.,.,.| / :.6.0.0.6.,.~ | ,.,.:.+.R c n T ' ' ~ ' '  .,.W M j s i ",
"s s s ..=.=.} ' Q } o. .} ~ K n n ..O.O.U C o.*.,.,.=.X.C U O.O.[ n n U ~ } o.o.} Q ' | &.&.X.d s s ",
"s s s U T T T T E #.,.,.@.' ' ' ~ T K K b c b / X.X.E b c b L L T ' ' ' ' @.,.,.+.E T T T T n d s a ",
"i s h h k v k B :.,.,.#. .' ' ' ' ' ' ' Q K K K U K U K U T ' ' ' ' ' ' '  .#.,.,.,.B k c k h h a i ",
". a v k h h d z @.@.o.' ' ~ T / @.@. .' ' ' ' ' ' ' ' ' ' ' ' o.@.@.~ U ' ' ' o.#.@.k d h h k v a . ",
". d c c x h d f U ! ' ' Q T ( O.,.,.=.' Q K ' ' ' ' ' ~ T T ' =.,.,.O.( T Q ' ' ! K f d h x v v a O ",
"p d h x c c k k h b T ~ U n =.,.,.#.| K K Q @.#.#.#.#.@.! T U | @.,.,.-.b T ~ T b h k k c v c h a i ",
"d f k K K Q n v k h h K n b | o.o.] ! v Q ] ,.,.,.,.,.,.} Q b ~ ' o.o...b n K h h k x n T T K x d a ",
"s h c ~ ! K b v v k k v v v x C ' ' ! b Q ] o.=.,.,.=. .} T b ! ' ' n x v v b k k x v b K ! ~ v h a ",
"+ d v n n v c n Q ! T v v c z k k k h h k b ~ ]  . .] ' c h f k k h z k v v b T ! Q n x v n n v d + ",
"O i f x x x h k ~ ' ~ v v v c x k k h a a d h h h h h k d d a h k x x x v x b ~ ' ' k h x v x f 6 O ",
"i + + k k f k x n n b c v v v v v v x x x k s s s s d a x x x x v v v x v v v n n n x k d k k @ O + ",
". @ p i @ @ k v v v b b k f x v v v v v b b k x k x k x b x v v v v v x f k b b v x v k + @ @ 6 @ O ",
"H 2 O O . O h c v v x s b ~ ~ T x v k d K ' ~ K b v K ~ ~ L d k v v I ~ Q b d k v v x h O . O O 2 H ",
"H H H O + p @ i x c k + z ~ ~ T x h k ! ' ' ~ K b v L ~ ' ~ ~ h f b T ' ' k + z x x @ @ a @ O H H H ",
"H H H H 2 O i i + O O O s x v v x d h ~ ~ Q v v x k x b ! ~ ~ h f v v x x s O + O + p @ O 2 H H H H ",
"H H H H H H 5 . O O O i @ @ k x x i p x v v v d + + d b b c x p @ x k k @ @ @ O O O O 5 H H H H H H ",
"H H H H H H H H H H H O @ 6 + O O + @ a h k k a o o s k k h s + + O o + @ @ O H H H H H H H H H H H ",
"H H H H H H H H H H H H 2 .   X # $ $ & & & & , > > , & & & % $ $ # o   O 2 H H H H H H H H H H H H ",
"H H H H H H H H H H H H H H * = - - > u u y e y u u y e y u u < - - = * H H H H H H H H H H H H H H ",
"H H H H H H H H H H H H H H * * * r u y r w > t u u t > < t y y r * * * H H H H H H H H H H H H H H ",
"H H H H H H H H H H H H H H * * = : < e < > t y u u u t > > e < > = * * H H H H H H H H H H H H H H ",
"H H H H H H H H H H H H H H 3 1 - = - > ; : y u u u u t : ; > - = = 1 4 H H H H H H H H H H H H H H ",
"H H H H H H H H H H H H H H H D 3 = = * = = : > q q > : = = * = = 4 D H H H H H H H H H H H H H H H ",
"H H H H H H H H H H H H H H H H H 3 3 3 4 4 3 4 3 3 3 3 4 4 3 3 3 H H H H H H H H H H H H H H H H H "
};
